# AST/ASF file generated using VICON BodyLanguage
# -----------------------------------------------
:version 1.10
:name VICON
:units
  mass 1.0
  length 0.45
  angle deg
:documentation
   .ast/.asf automatically generated from VICON data using
   VICON BodyBuilder and BodyLanguage model FoxedUp or BRILLIANT.MOD
:root
   order TX TY TZ RX RY RZ
   axis XYZ
   position 0 0 0  
   orientation 0 0 0 
:bonedata
  begin
     id 1 
     name lhipjoint
     direction 0.627457 -0.725269 0.283342 
     length 2.53237 
     axis 0 0 0  XYZ
  end
  begin
     id 2 
     name lfemur
     direction 0.34202 -0.939693 0  
     length 7.32496  
     axis 0 0 20  XYZ
    dof rx ry rz
    limits (-160.0 20.0)
           (-70.0 70.0)
           (-60.0 70.0)
  end
  begin
     id 3 
     name ltibia
     direction 0.34202 -0.939693 0   
     length 7.69674   
     axis 0 0 20   XYZ
    dof rx
    limits (-10.0 170.0)
  end
  begin
     id 4 
     name lfoot
     direction 0.127289 -0.349722 0.928166   
     length 1.8612   
     axis -90 7.62852e-016 20   XYZ
    dof rx rz
    limits (-45.0 90.0)
           (-70.0 20.0)
  end
  begin
     id 5 
     name ltoes
     direction 1.53561e-011 -4.21864e-011 1   
     length 0.925608   
     axis -90 7.62852e-016 20   XYZ
    dof rx
    limits (-90.0 20.0)
  end
  begin
     id 6 
     name rhipjoint
     direction -0.609094 -0.738725 0.288599   
     length 2.48624  
     axis 0 0 0  XYZ 
  end
  begin
     id 7 
     name rfemur
     direction -0.34202 -0.939693 0   
     length 7.44259   
     axis 0 0 -20   XYZ
    dof rx ry rz
    limits (-160.0 20.0)
           (-70.0 70.0)
           (-70.0 60.0)
  end
  begin
     id 8 
     name rtibia
     direction -0.34202 -0.939693 0   
     length 7.7781   
     axis 0 0 -20   XYZ
    dof rx
    limits (-10.0 170.0)
 end
 begin
     id 9 
     name rfoot
     direction -0.107015 -0.294021 0.949789   
     length 2.14741  
     axis -90 -7.62852e-016 -20   XYZ
    dof rx rz
    limits (-45.0 90.0)
           (-20.0 70.0)
  end
  begin
     id 10 
     name rtoes
     direction -1.53497e-011 -4.21924e-011 1   
     length 1.0706   
     axis -90 -7.62852e-016 -20   XYZ
    dof rx
    limits (-90.0 20.0)
  end
  begin
     id 11 
     name lowerback
     direction -0.0142066 0.998112 -0.0597545   
     length 1.86627   
     axis 0 0 0   XYZ
    dof rx ry rz
    limits (-20.0 45.0)
           (-30.0 30.0)
           (-30.0 30.0)
  end
  begin
     id 12 
     name upperback
     direction 0.00547294 0.999744 0.0219437   
     length 1.86272   
     axis 0 0 0   XYZ
    dof rx ry rz
    limits (-20.0 45.0)
           (-30.0 30.0)
           (-30.0 30.0)
  end
  begin
     id 13 
     name thorax
     direction 0.0116162 0.998704 0.0495538   
     length 1.8703   
     axis 0 0 0   XYZ
    dof rx ry rz
    limits (-20.0 45.0)
           (-30.0 30.0)
           (-30.0 30.0)
  end
  begin
     id 14 
     name lowerneck
     direction -0.0106574 0.998739 0.0490586   
     length 1.8074   
     axis 0 0 0   XYZ
    dof rx ry rz
    limits (-20.0 45.0)
           (-30.0 30.0)
           (-30.0 30.0)
  end
  begin
     id 15 
     name upperneck
     direction 0.030527 0.976587 -0.212944   
     length 1.80681   
     axis 0 0 0   XYZ
    dof rx ry rz
    limits (-20.0 45.0)
           (-30.0 30.0)
           (-30.0 30.0)
  end
  begin
     id 16
     name head
     direction 0.00869225 0.997035 -0.0764531  
     length 1.8313  
     axis 0 0 0   XYZ
    dof rx ry rz
    limits (-20.0 45.0)
           (-30.0 30.0)
           (-30.0 30.0)
  end
  begin
     id 17 
     name lclavicle
     direction 0.915958 0.399447 0.0382386  
     length 3.78965  
     axis 0 0 0   XYZ
    dof ry rz
    limits (-20.0 10.0)
           (0.0 20.0)
  end
  begin
     id 18 
     name lhumerus
     direction 1 -4.48967e-011 3.19303e-027   
     length 4.78095   
     axis -180 -30 -90   XYZ
    dof rx ry rz
    limits (-60.0 90.0)
           (-90.0 90.0)
           (-90.0 90.0)
  end
  begin
     id 19
     name lradius
     direction 1 -4.48967e-011 -3.77974e-027   
     length 3.58615   
     axis -180 -30 -90   XYZ
    dof rx
    limits (-10.0 170.0)
  end
  begin
     id 20
     name lwrist
     direction 1 -4.48927e-011 1.2807e-027   
     length 1.79307   
     axis 1.91374e-015 90 90   XYZ
    dof ry
    limits (-180.0 0.0)
 end
  begin
     id 21 
     name lhand
     direction 1 -4.49036e-011 2.5614e-027   
     length 0.659812   
     axis -1.63439e-015 90 90   XYZ
    dof rx rz
    limits (-90.0 90.0)
           (-45.0 45.0)
  end
  begin
     id 22 
     name lfingers
     direction 1 -4.49052e-011 5.1228e-027   
     length 0.531957   
     axis -3.26879e-015 90 90   XYZ
    dof rx
    limits (0.0 90.0)
  end
  begin
     id 23
     name lthumb
     direction 0.707107 -6.35012e-011 0.707107   
     length 0.763787   
     axis -90 45 2.85299e-015   XYZ
    dof rx rz
    limits (-45.0 45.0)
           (-45.0 45.0)
  end
  begin
     id 24 
     name rclavicle
     direction -0.895351 0.435135 0.0948887   
     length 3.70497  
     axis 0 0 0   XYZ 
    dof ry rz
    limits (-10.0 20.0)
           (-20.0 0.0)
  end
  begin
     id 25 
     name rhumerus
     direction -1 -4.48971e-011 2.38946e-027  
     length 4.48913   
     axis -180 30 90   XYZ
    dof rx ry rz
    limits (-90.0 60.0)
           (-90.0 90.0)
           (-90.0 90.0)
  end
  begin
     id 26 
     name rradius
     direction -1 -4.4895e-011 4.38668e-027   
     length 3.7051   
     axis -180 30 90   XYZ
    dof rx
    limits (-10.0 170.0)
  end
  begin
     id 27 
     name rwrist
     direction -1 -4.49007e-011 1.2807e-027   
     length 1.85255   
     axis 1.91374e-015 -90 -90   XYZ
    dof ry
    limits (-180.0 0.0)
  end
  begin
     id 28
     name rhand
     direction -1 -4.48851e-011 2.5614e-027   
     length 0.449136   
     axis -1.63439e-015 -90 -90   XYZ
    dof rx rz
    limits (-90.0 90.0)
           (-45.0 45.0)
  end
  begin
     id 29
     name rfingers
     direction -1 -4.49128e-011 5.1228e-027   
     length 0.362105   
     axis -3.26879e-015 -90 -90   XYZ
    dof rx
    limits (0.0 90.0)
  end
  begin
     id 30
     name rthumb
     direction -0.707107 -6.34851e-011 0.707107   
     length 0.519912   
     axis -90 -45 -2.85299e-015   XYZ
    dof rx rz
    limits (-45.0 45.0)
           (-45.0 45.0)
  end
:hierarchy
  begin
    root lhipjoint rhipjoint lowerback
    lhipjoint lfemur
    lfemur ltibia
    ltibia lfoot
    lfoot ltoes
    rhipjoint rfemur
    rfemur rtibia
    rtibia rfoot
    rfoot rtoes
    lowerback upperback
    upperback thorax
    thorax lowerneck lclavicle rclavicle
    lowerneck upperneck
    upperneck head
    lclavicle lhumerus
    lhumerus lradius
    lradius lwrist
    lwrist lhand lthumb
    lhand lfingers
    rclavicle rhumerus
    rhumerus rradius
    rradius rwrist
    rwrist rhand rthumb
    rhand rfingers
  end

#!OML:ASF I:\Actors\actors\Patient Classification 2\Patient 1\Session 1\actor1.ASF
:FULLY-SPECIFIED
:DEGREES
16
root -1.1081 18.1515 5.78895 0.122793 -4.79236 -3.26266
lowerback 3.04852 0.595027 0.672274
upperback -2.21039 0.884555 1.57371
thorax -4.00177 0.444539 1.18812
lowerneck -10.4217 -0.086329 -1.80758
upperneck 18.6041 0.0674797 0.716596
head 7.42873 -0.0306732 0.54096
rclavicle -1.1851e-014 -2.78299e-015
rhumerus -47.8835 0.316987 -87.7908
rradius 39.7376
rwrist 17.225
rhand -10.1636 -24.7316
rfingers 7.12502
rthumb 15.8261 -54.1047
lclavicle -1.1851e-014 -2.78299e-015
lhumerus -43.6241 3.15242 92.1774
lradius 37.2829
lwrist -10.2475
lhand -4.38488 -24.8389
lfingers 7.12502
lthumb 21.3843 4.00102
rfemur 8.7422 -0.805928 19.0947
rtibia -9.54166e-015
rfoot -15.7927 -7.61632
rtoes 6.38166
lfemur 17.3048 -6.25934 -14.2832
ltibia -16.4117
lfoot -5.73939 21.0029
ltoes -10.4712
17
root -1.10844 18.1516 5.78836 0.131589 -4.791 -3.24745
lowerback 3.05303 0.601231 0.641336
upperback -2.21532 0.891359 1.56919
thorax -4.00995 0.44873 1.2003
lowerneck -10.4394 -0.0912512 -1.78566
upperneck 18.6405 0.0647111 0.677497
head 7.44392 -0.0342031 0.52441
rclavicle -6.59717e-015 2.56929e-014
rhumerus -47.8692 0.363146 -87.8033
rradius 39.748
rwrist 17.1469
rhand -10.4126 -24.792
rfingers 7.12502
rthumb 15.5863 -54.184
lclavicle -6.59717e-015 2.56929e-014
lhumerus -43.6213 3.12474 92.2006
lradius 37.2898
lwrist -10.2251
lhand -4.37899 -24.74
lfingers 7.12502
lthumb 21.39 4.0993
rfemur 8.73325 -0.806996 19.077
rtibia 2.06736e-014
rfoot -15.8086 -7.61155
rtoes 6.3302
lfemur 17.279 -6.30942 -14.3024
ltibia -16.3882
lfoot -5.7838 21.0408
ltoes -10.2436
18
root -1.10822 18.1509 5.78797 0.131916 -4.77584 -3.22227
lowerback 3.05904 0.597775 0.604693
upperback -2.21367 0.884793 1.56216
thorax -4.01195 0.446383 1.21397
lowerneck -10.4263 -0.023171 -1.63891
upperneck 18.641 0.163813 0.513076
head 7.44079 0.00841292 0.45561
rclavicle -1.52816e-015 5.59082e-015
rhumerus -47.8627 0.416413 -87.8138
rradius 39.7777
rwrist 17.0879
rhand -10.7439 -25.03
rfingers 7.12502
rthumb 15.2672 -54.4466
lclavicle -1.52816e-015 5.59082e-015
lhumerus -43.6122 3.12027 92.2163
lradius 37.2928
lwrist -10.1992
lhand -4.40285 -24.7384
lfingers 7.12502
lthumb 21.3671 4.10356
rfemur 8.73248 -0.821264 19.0463
rtibia -1.27222e-014
rfoot -15.8193 -7.60355
rtoes 6.45501
lfemur 17.2666 -6.36125 -14.3385
ltibia -16.3705
lfoot -5.81365 21.0635
ltoes -10.3127
19
root -1.10843 18.1512 5.78798 0.133613 -4.77013 -3.23707
lowerback 3.06558 0.592468 0.607559
upperback -2.21461 0.878139 1.56689
thorax -4.01656 0.443064 1.21762
lowerneck -10.2995 0.0959698 -1.51661
upperneck 18.5617 0.314934 0.454541
head 7.39068 0.0843185 0.429906
rclavicle -1.98893e-014 -7.45443e-016
rhumerus -47.875 0.456338 -87.8238
rradius 39.7997
rwrist 17.0508
rhand -10.824 -25.1729
rfingers 7.12502
rthumb 15.19 -54.5953
lclavicle -1.98893e-014 -7.45443e-016
lhumerus -43.6072 3.14494 92.2154
lradius 37.2855
lwrist -10.2098
lhand -4.43309 -24.8269
lfingers 7.12502
lthumb 21.338 4.01828
rfemur 8.72908 -0.827377 19.0635
rtibia -4.77083e-015
rfoot -15.8189 -7.60221
rtoes 6.62461
lfemur 17.2635 -6.4114 -14.3286
ltibia -16.3605
lfoot -5.83693 21.1003
ltoes -10.3456
20
root -1.10923 18.1524 5.7876 0.138686 -4.77679 -3.25778
lowerback 3.09071 0.596375 0.600375
upperback -2.22782 0.884116 1.57926
thorax -4.04494 0.446444 1.23376
lowerneck -10.2265 0.0873176 -1.60129
upperneck 18.5078 0.300443 0.53951
head 7.35989 0.0794644 0.470056
rclavicle -1.54012e-014 9.74045e-015
rhumerus -47.89 0.413843 -87.7916
rradius 39.7805
rwrist 17.1255
rhand -10.6123 -25.071
rfingers 7.12502
rthumb 15.3939 -54.4779
lclavicle -1.54012e-014 9.74045e-015
lhumerus -43.6227 3.16927 92.2146
lradius 37.2913
lwrist -10.2623
lhand -4.42939 -24.8551
lfingers 7.12502
lthumb 21.3416 3.9897
rfemur 8.72252 -0.821707 19.0897
rtibia -1.59028e-015
rfoot -15.8302 -7.60326
rtoes 6.62083
lfemur 17.265 -6.43863 -14.3037
ltibia -16.3744
lfoot -5.83986 21.1276
ltoes -10.2868
21
root -1.10862 18.1519 5.78722 0.133621 -4.77475 -3.26399
lowerback 3.12711 0.601405 0.598746
upperback -2.23409 0.891771 1.58736
thorax -4.07239 0.450426 1.24218
lowerneck -10.3127 -0.0351153 -1.81588
upperneck 18.5761 0.148496 0.661276
head 7.39914 0.00254269 0.531672
rclavicle -1.55627e-014 -9.59136e-015
rhumerus -47.9011 0.360771 -87.7436
rradius 39.7674
rwrist 17.2044
rhand -10.5147 -24.9463
rfingers 7.12502
rthumb 15.4879 -54.346
lclavicle -1.55627e-014 -9.59136e-015
lhumerus -43.645 3.15383 92.2383
lradius 37.3187
lwrist -10.3037
lhand -4.4054 -24.861
lfingers 7.12502
lthumb 21.3646 3.98122
rfemur 8.72745 -0.823526 19.0951
rtibia 1.59028e-015
rfoot -15.8398 -7.59227
rtoes 6.65593
lfemur 17.2831 -6.42312 -14.2953
ltibia -16.3999
lfoot -5.80005 21.1048
ltoes -10.3675
22
root -1.1078 18.151 5.78745 0.131032 -4.76846 -3.27722
lowerback 3.14783 0.596404 0.609775
upperback -2.23169 0.886159 1.59344
thorax -4.08149 0.447407 1.24245
lowerneck -10.3566 -0.0794062 -1.90169
upperneck 18.5862 0.0982025 0.690852
head 7.41097 -0.0248447 0.550988
rclavicle 7.68116e-015 -1.12313e-014
rhumerus -47.9039 0.359405 -87.7283
rradius 39.7529
rwrist 17.1982
rhand -9.6819 -25.5886
rfingers 7.12502
rthumb 16.29 -54.9243
lclavicle 7.68116e-015 -1.12313e-014
lhumerus -43.6615 3.15513 92.2492
lradius 37.3472
lwrist -10.3416
lhand -4.40121 -24.8928
lfingers 7.12502
lthumb 21.3686 3.94898
rfemur 8.73008 -0.829571 19.1074
rtibia -1.43125e-014
rfoot -15.814 -7.59263
rtoes 6.65826
lfemur 17.2974 -6.39891 -14.2815
ltibia -16.4138
lfoot -5.7523 21.0778
ltoes -10.5288
23
root -1.108 18.1513 5.78801 0.133406 -4.75813 -3.27778
lowerback 3.16739 0.579343 0.585783
upperback -2.23814 0.862613 1.59334
thorax -4.0992 0.436385 1.25719
lowerneck -10.3171 -0.0604456 -1.83765
upperneck 18.5171 0.127036 0.612768
head 7.38107 -0.0134118 0.517292
rclavicle -2.14253e-014 -1.51076e-014
rhumerus -47.904 0.382207 -87.7365
rradius 39.7095
rwrist 17.1713
rhand -8.03843 -26.8743
rfingers 7.12502
rthumb 17.8719 -56.0731
lclavicle -2.14253e-014 -1.51076e-014
lhumerus -43.6697 3.20594 92.2171
lradius 37.343
lwrist -10.3803
lhand -4.42673 -24.9174
lfingers 7.12502
lthumb 21.3441 3.92708
rfemur 8.73062 -0.839929 19.108
rtibia 2.22639e-014
rfoot -15.7565 -7.61238
rtoes 6.42314
lfemur 17.2896 -6.32219 -14.2713
ltibia -16.4114
lfoot -5.68705 21.0106
ltoes -10.7854
24
root -1.10821 18.1521 5.78807 0.135187 -4.74927 -3.2581
lowerback 3.18887 0.569173 0.549238
upperback -2.24453 0.847193 1.5808
thorax -4.11804 0.429582 1.26557
lowerneck -10.2981 -0.0505489 -1.73159
upperneck 18.4683 0.149935 0.464008
head 7.36179 -0.008407 0.453123
rclavicle -1.19395e-014 2.02512e-014
rhumerus -47.9015 0.399144 -87.7452
rradius 39.6907
rwrist 17.1325
rhand -7.25379 -27.5178
rfingers 7.12502
rthumb 18.6267 -56.646
lclavicle -1.19395e-014 2.02512e-014
lhumerus -43.647 3.24067 92.1808
lradius 37.299
lwrist -10.4172
lhand -4.44679 -24.9553
lfingers 7.12502
lthumb 21.3249 3.89143
rfemur 8.72929 -0.848532 19.0865
rtibia 4.77083e-015
rfoot -15.7289 -7.61942
rtoes 6.31211
lfemur 17.2727 -6.25486 -14.2845
ltibia -16.397
lfoot -5.66083 20.9541
ltoes -10.9013
25
root -1.10799 18.1522 5.7876 0.138749 -4.75073 -3.24449
lowerback 3.20398 0.570903 0.53243
upperback -2.24736 0.848507 1.56906
thorax -4.12961 0.430545 1.26265
lowerneck -10.2667 -0.0513679 -1.68709
upperneck 18.4228 0.156205 0.380992
head 7.34143 -0.00963345 0.41911
rclavicle -2.19595e-015 6.18717e-015
rhumerus -47.9085 0.375669 -87.7343
rradius 39.6968
rwrist 17.1262
rhand -7.27079 -27.4963
rfingers 7.12502
rthumb 18.6104 -56.626
lclavicle -2.19595e-015 6.18717e-015
lhumerus -43.6328 3.23173 92.175
lradius 37.285
lwrist -10.4307
lhand -4.43841 -24.9614
lfingers 7.12502
lthumb 21.3329 3.88433
rfemur 8.72011 -0.846861 19.0711
rtibia 1.59028e-014
rfoot -15.7353 -7.63363
rtoes 6.27736
lfemur 17.2554 -6.27642 -14.3014
ltibia -16.3792
lfoot -5.71835 20.9816
ltoes -10.5867
26
root -1.1078 18.152 5.78764 0.154754 -4.75592 -3.25062
lowerback 3.20474 0.574431 0.534678
upperback -2.25558 0.853315 1.56449
thorax -4.13856 0.432819 1.25632
lowerneck -10.2499 -0.0566758 -1.69463
upperneck 18.4048 0.148403 0.388692
head 7.33265 -0.013102 0.42209
rclavicle -2.00182e-015 1.27222e-014
rhumerus -47.9206 0.348692 -87.7212
rradius 39.68
rwrist 17.1455
rhand -7.28482 -27.419
rfingers 7.12502
rthumb 18.5969 -56.55
lclavicle -2.00182e-015 1.27222e-014
lhumerus -43.6437 3.18955 92.1912
lradius 37.308
lwrist -10.3951
lhand -4.42344 -24.9296
lfingers 7.12502
lthumb 21.3473 3.91451
rfemur 8.70002 -0.842192 19.0789
rtibia 1.11319e-014
rfoot -15.7374 -7.65396
rtoes 6.1525
lfemur 17.2322 -6.2884 -14.2924
ltibia -16.3693
lfoot -5.72661 20.9913
ltoes -10.4632
27
root -1.10818 18.1519 5.78847 0.174739 -4.76264 -3.24867
lowerback 3.18764 0.576748 0.514692
upperback -2.2598 0.855195 1.56384
thorax -4.13356 0.434329 1.26688
lowerneck -10.2799 -0.0490233 -1.70589
upperneck 18.4339 0.156966 0.412807
head 7.34733 -0.00773242 0.432713
rclavicle 7.79453e-015 -4.22417e-015
rhumerus -47.9183 0.372728 -87.7287
rradius 39.6612
rwrist 17.1295
rhand -7.27747 -27.3754
rfingers 7.12502
rthumb 18.6039 -56.5058
lclavicle 7.79453e-015 -4.22417e-015
lhumerus -43.6357 3.19625 92.1903
lradius 37.3063
lwrist -10.3902
lhand -4.42001 -24.9328
lfingers 7.12502
lthumb 21.3506 3.911
rfemur 8.67987 -0.836338 19.0803
rtibia -4.77083e-015
rfoot -15.7567 -7.64423
rtoes 6.19507
lfemur 17.2128 -6.28535 -14.292
ltibia -16.3637
lfoot -5.71488 20.9931
ltoes -10.5261
